<svg xmlns="http://www.w3.org/2000/svg" fill="none" viewBox="0 0 3500 2000" preserveAspectRatio="none">
<g filter="url(#filter0_i)">
<path fill-rule="evenodd" clip-rule="evenodd" d="M0.5 587.5V687.654V1470H0V2410H3579V1470H3578.5V1236.3V855.291H3480.11C3365.15 884.427 3337.77 911.313 3230.55 1016.6C3214.38 1032.48 3196.38 1050.15 3176 1069.87C3095.34 1147.94 3077.94 1168.5 3057.55 1185.49C3038.79 1201.13 3017.49 1213.73 2942 1265.37C2772.09 1381.6 2647.5 1397.87 2385.83 1422.37C2216.14 1438.26 1279.19 1424.17 1555.33 779.22C1562.07 763.489 1570.67 744.736 1580.37 723.592C1675.34 516.606 1875.43 80.5167 1456.11 8.49999C1269.06 -23.6249 1027.83 46.7746 892 110.873C790.752 158.653 785.734 162.902 781.691 166.325C776.744 170.514 773.255 173.468 596.833 253.373L321 399.373L0.5 587.5Z" fill="url(#paint0_radial)" style="mix-blend-mode:darken"/>
</g>
<defs>
<filter id="filter0_i" x="0" y="0.468994" width="3679" height="2413.53" filterUnits="userSpaceOnUse" color-interpolation-filters="sRGB">
<feFlood flood-opacity="0" result="BackgroundImageFix"/>
<feBlend mode="normal" in="SourceGraphic" in2="BackgroundImageFix" result="shape"/>
<feColorMatrix in="SourceAlpha" type="matrix" values="0 0 0 0 0 0 0 0 0 0 0 0 0 0 0 0 0 0 127 0" result="hardAlpha"/>
<feOffset dx="100" dy="4"/>
<feGaussianBlur stdDeviation="50"/>
<feComposite in2="hardAlpha" operator="arithmetic" k2="-1" k3="1"/>
<feColorMatrix type="matrix" values="0 0 0 0 0.328472 0 0 0 0 0.581293 0 0 0 0 0.916667 0 0 0 1 0"/>
<feBlend mode="normal" in2="shape" result="effect1_innerShadow"/>
</filter>
<radialGradient id="paint0_radial" cx="0" cy="0" r="1" gradientUnits="userSpaceOnUse" gradientTransform="translate(1172 1790.5) rotate(-13.6663) scale(2477.13 1667.71)">
<stop stop-color="#1779FB"/>
<stop offset="0.595928" stop-color="#4175DA" stop-opacity="0.87"/>
<stop offset="1" stop-color="#1779FB"/>
</radialGradient>
</defs>
</svg>
